<svg xmlns="http://www.w3.org/2000/svg" width="24" height="25" viewBox="0 0 24 25" fill="none">
    <g clip-path="url(#clip0_1022_5848)">
        <path
            d="M13 19.5H19V10.478L12 5.034L5 10.478V19.5H11V13.5H13V19.5ZM21 20.5C21 20.7652 20.8946 21.0196 20.7071 21.2071C20.5196 21.3946 20.2652 21.5 20 21.5H4C3.73478 21.5 3.48043 21.3946 3.29289 21.2071C3.10536 21.0196 3 20.7652 3 20.5V9.99C2.99989 9.83761 3.03462 9.68721 3.10152 9.5503C3.16841 9.41338 3.26572 9.29356 3.386 9.2L11.386 2.978C11.5615 2.84144 11.7776 2.7673 12 2.7673C12.2224 2.7673 12.4385 2.84144 12.614 2.978L20.614 9.2C20.7343 9.29356 20.8316 9.41338 20.8985 9.5503C20.9654 9.68721 21.0001 9.83761 21 9.99V20.5Z"
            fill="#4E4B66" />
    </g>
    <defs>
        <clipPath id="clip0_1022_5848">
            <rect width="24" height="24" fill="white" transform="translate(0 0.5)" />
        </clipPath>
    </defs>
</svg>